<svg xmlns="http://www.w3.org/2000/svg" width="10.838" height="13.589" viewBox="0 0 10.838 13.589">
  <g id="Group_11" data-name="Group 11" transform="translate(-451.581 -963.844)">
    <path id="Icon_awesome-bus" data-name="Icon awesome-bus" d="M10.33,2.709H10.16V1.693C10.16.745,8.061,0,5.419,0S.677.745.677,1.693V2.709H.508A.508.508,0,0,0,0,3.217V4.911a.508.508,0,0,0,.508.508H.677V8.806a.677.677,0,0,0,.677.677v.677a.677.677,0,0,0,.677.677h.677a.677.677,0,0,0,.677-.677V9.483H7.451v.677a.677.677,0,0,0,.677.677h.677a.677.677,0,0,0,.677-.677V9.483h.135a.534.534,0,0,0,.542-.542V5.419h.169a.508.508,0,0,0,.508-.508V3.217A.508.508,0,0,0,10.33,2.709ZM2.371,8.467a.677.677,0,1,1,.677-.677A.677.677,0,0,1,2.371,8.467ZM2.709,6.1a.677.677,0,0,1-.677-.677V2.709a.677.677,0,0,1,.677-.677H8.128a.677.677,0,0,1,.677.677V5.419a.677.677,0,0,1-.677.677ZM8.467,8.467a.677.677,0,1,1,.677-.677A.677.677,0,0,1,8.467,8.467Z" transform="translate(451.581 966.595)" fill="#fff"/>
    <line id="Line_5" data-name="Line 5" y1="3.52" x2="1" transform="translate(456 963.98)" fill="none" stroke="#fff" stroke-width="1"/>
    <line id="Line_6" data-name="Line 6" y1="3.52" x2="1" transform="translate(458.5 963.98)" fill="none" stroke="#fff" stroke-width="1"/>
  </g>
</svg>
