<svg xmlns="http://www.w3.org/2000/svg" width="15.424" height="13.368" viewBox="0 0 15.424 13.368">
  <path id="Icon_metro-directions-bike" data-name="Icon metro-directions-bike" d="M12.854,6.427A1.157,1.157,0,1,0,11.7,5.27,1.158,1.158,0,0,0,12.854,6.427Zm1.928,4.627a3.213,3.213,0,1,0,3.213,3.213,3.215,3.215,0,0,0-3.213-3.213Zm0,5.463a2.249,2.249,0,1,1,2.249-2.249A2.248,2.248,0,0,1,14.782,16.517Zm-2.7-6.748h2.7V8.612H12.725l-1.244-2.1a1.091,1.091,0,0,0-.942-.537,1.077,1.077,0,0,0-.771.321L7.391,8.673a1.092,1.092,0,0,0,.225,1.719l2.153,1.3V14.91h1.157V10.746L9.479,9.672l1.491-1.5,1.112,1.594Zm-6.3,1.285A3.213,3.213,0,1,0,9,14.267a3.215,3.215,0,0,0-3.213-3.213Zm0,5.463a2.249,2.249,0,1,1,2.249-2.249A2.248,2.248,0,0,1,5.784,16.517Z" transform="translate(-2.571 -4.113)" fill="#fff"/>
</svg>
