<svg width="225" height="91" viewBox="0 0 225 91" fill="none" xmlns="http://www.w3.org/2000/svg">
<path d="M19.8784 57.4227V48.8244H13.7267V40.4731L4.77553 43.155V48.8244H0V57.4227H4.77553V67.9854C4.77553 76.3367 8.17486 79.8654 19.8784 78.6656V70.5496C15.938 70.7848 13.7267 70.5496 13.7267 67.9854V57.4227H19.8784Z" fill="black"/>
<path d="M32.3223 54.1399V48.8233H23.3711V67.8901H32.3223V65.173C32.3223 59.2683 37.5801 57.7744 41.2734 58.3743V48.2234C37.5212 48.2234 33.522 50.1407 32.3223 54.1399Z" fill="black"/>
<path d="M58.3326 71.0201C54.2157 71.0201 51.2281 68.2089 51.2281 63.7392C51.2281 59.2695 54.2157 56.4583 58.3326 56.4583C62.4494 56.4583 65.437 59.2695 65.437 63.7392C65.4253 68.2207 62.4376 71.0201 58.3326 71.0201ZM65.4253 48.8245V51.6357C63.4492 49.3656 60.5321 47.9894 56.5329 47.9894C48.7109 47.9894 42.2651 54.8586 42.2651 63.7392C42.2651 72.6316 48.7109 79.5008 56.5329 79.5008C60.5321 79.5008 63.4492 78.1246 65.4253 75.8545V78.6657H74.3765V48.8245H65.4253Z" fill="black"/>
<path d="M194.864 71.0201C190.747 71.0201 187.76 68.2089 187.76 63.7392C187.76 59.2695 190.747 56.4583 194.864 56.4583C198.981 56.4583 201.969 59.2695 201.969 63.7392C201.969 68.2207 198.981 71.0201 194.864 71.0201ZM201.969 48.8245V51.6357C199.993 49.3656 197.076 47.9894 193.076 47.9894C185.254 47.9894 178.809 54.8586 178.809 63.7392C178.809 72.6316 185.254 79.5008 193.076 79.5008C197.076 79.5008 199.993 78.1246 201.969 75.8545V78.6657H210.92V48.8245H201.969Z" fill="black"/>
<path d="M95.3905 47.9941C91.4501 47.9941 88.4742 49.4292 86.8628 51.6405V48.8293H77.9116V78.6704H86.8628V62.3795C86.8628 58.1451 89.1329 56.2278 92.4146 56.2278C95.2847 56.2278 97.6136 57.9569 97.6136 61.662V78.6704H106.565V60.3446C106.553 52.2874 101.425 47.9941 95.3905 47.9941Z" fill="black"/>
<path d="M121.936 70.3132L133.216 54.7987V48.8234H110.538V57.1747H121.218L109.938 72.6892V78.6528H133.816V70.3015H121.936V70.3132Z" fill="black"/>
<path d="M156.858 48.8234L151.248 67.0904L144.625 48.8234H134.78L146.66 77.2884C145.343 80.9347 143.379 82.2403 139.203 82.2403V90.5916C147.554 91.0033 152.871 87.2511 156.211 77.7589L166.421 48.8116H156.858V48.8234Z" fill="black"/>
<path d="M174.366 73.9478C174.366 76.7002 172.131 78.9351 169.379 78.9351C166.627 78.9351 164.392 76.7002 164.392 73.9478C164.392 71.1954 166.627 68.9606 169.379 68.9606C172.131 68.9488 174.366 71.1836 174.366 73.9478Z" fill="#6F8B7D"/>
<path d="M23.3672 78.8939H32.3184V69.9427H23.3672V78.8939Z" fill="#EA633E"/>
<path fill-rule="evenodd" clip-rule="evenodd" d="M224.854 40.1568C224.854 42.9092 222.619 45.1441 219.867 45.1441C217.114 45.1441 214.879 42.9092 214.879 40.1568C214.879 37.4044 217.114 35.1696 219.867 35.1696C222.619 35.1696 224.854 37.4044 224.854 40.1568ZM224.336 48.8257V78.6669H215.385V48.8257H224.336Z" fill="black"/>
<path d="M10.5408 11.2429C8.59481 11.2429 7.0272 11.8645 5.97312 13.1348V11.4591H1.94599V31.2434H6.16231V24.4594C7.24342 25.6486 8.72995 26.2162 10.5408 26.2162C14.622 26.2162 17.7842 23.2972 17.7842 18.7296C17.7842 14.1619 14.622 11.2429 10.5408 11.2429ZM9.81105 22.7567C7.70289 22.7567 6.10826 21.2431 6.10826 18.7296C6.10826 16.216 7.70289 14.7024 9.81105 14.7024C11.9192 14.7024 13.5138 16.216 13.5138 18.7296C13.5138 21.2431 11.9192 22.7567 9.81105 22.7567ZM27.5258 26.2162C32.1475 26.2162 35.499 23.108 35.499 18.7296C35.499 14.3511 32.1475 11.2429 27.5258 11.2429C22.9041 11.2429 19.5256 14.3511 19.5256 18.7296C19.5256 23.108 22.9041 26.2162 27.5258 26.2162ZM27.5258 22.7567C25.4176 22.7567 23.796 21.2431 23.796 18.7296C23.796 16.216 25.4176 14.7024 27.5258 14.7024C29.634 14.7024 31.2286 16.216 31.2286 18.7296C31.2286 21.2431 29.634 22.7567 27.5258 22.7567ZM57.5434 11.4591L54.0028 21.2972L50.5433 11.4591H46.9756L43.4079 21.2972L39.9754 11.4591H36.0024L41.2457 26H45.2999L48.6784 16.9728L51.9487 26H56.0029L61.2733 11.4591H57.5434ZM77.0811 18.7836C77.0811 14.1078 73.7837 11.2429 69.5133 11.2429C65.0808 11.2429 61.7564 14.3781 61.7564 18.7296C61.7564 23.054 65.0267 26.2162 70.0539 26.2162C72.6756 26.2162 74.7026 25.4054 76.054 23.8648L73.8107 21.4323C72.8107 22.3783 71.7026 22.8378 70.162 22.8378C67.9457 22.8378 66.4051 21.7296 65.9997 19.9188H77C77.027 19.5674 77.0811 19.1079 77.0811 18.7836ZM69.5404 14.4321C71.4323 14.4321 72.8107 15.6214 73.108 17.4592H65.9457C66.243 15.5943 67.6214 14.4321 69.5404 14.4321ZM83.9153 13.3781V11.4591H79.8882V26H84.1045V19.135C84.1045 16.3511 85.6451 15.0808 87.9694 15.0808C88.2938 15.0808 88.564 15.1078 88.9154 15.1349V11.2429C86.6721 11.2429 84.9423 11.9726 83.9153 13.3781ZM105.534 18.7836C105.534 14.1078 102.237 11.2429 97.9663 11.2429C93.5338 11.2429 90.2094 14.3781 90.2094 18.7296C90.2094 23.054 93.4797 26.2162 98.5069 26.2162C101.129 26.2162 103.156 25.4054 104.507 23.8648L102.264 21.4323C101.264 22.3783 100.156 22.8378 98.615 22.8378C96.3987 22.8378 94.8581 21.7296 94.4527 19.9188H105.453C105.48 19.5674 105.534 19.1079 105.534 18.7836ZM97.9933 14.4321C99.8853 14.4321 101.264 15.6214 101.561 17.4592H94.3986C94.696 15.5943 96.0744 14.4321 97.9933 14.4321ZM118.936 5.94545V12.9997C117.882 11.8105 116.368 11.2429 114.585 11.2429C110.476 11.2429 107.314 14.1619 107.314 18.7296C107.314 23.2972 110.476 26.2162 114.585 26.2162C116.531 26.2162 118.071 25.5946 119.125 24.3243V26H123.152V5.94545H118.936ZM115.314 22.7567C113.206 22.7567 111.584 21.2431 111.584 18.7296C111.584 16.216 113.206 14.7024 115.314 14.7024C117.395 14.7024 119.017 16.216 119.017 18.7296C119.017 21.2431 117.395 22.7567 115.314 22.7567ZM143.304 11.2429C141.493 11.2429 140.006 11.8105 138.925 12.9997V5.94545H134.709V26H138.736V24.3243C139.79 25.5946 141.358 26.2162 143.304 26.2162C147.385 26.2162 150.547 23.2972 150.547 18.7296C150.547 14.1619 147.385 11.2429 143.304 11.2429ZM142.574 22.7567C140.466 22.7567 138.871 21.2431 138.871 18.7296C138.871 16.216 140.466 14.7024 142.574 14.7024C144.682 14.7024 146.277 16.216 146.277 18.7296C146.277 21.2431 144.682 22.7567 142.574 22.7567ZM163.352 11.4591L159.244 21.3242L155.163 11.4591H150.812L157.109 26.1081L157.055 26.2432C156.487 27.5406 155.839 28.0541 154.677 28.0541C153.839 28.0541 152.947 27.7027 152.298 27.1352L150.758 30.1352C151.703 30.9731 153.325 31.4596 154.812 31.4596C157.433 31.4596 159.433 30.4055 160.839 26.8919L167.407 11.4591H163.352Z" fill="black"/>
</svg>
