<svg xmlns="http://www.w3.org/2000/svg" width="10.037" height="14.339" viewBox="0 0 10.037 14.339">
  <g id="Icon_material-accessible" data-name="Icon material-accessible" transform="translate(-7.5 -3)">
    <path id="Path_9" data-name="Path 9" d="M17.868,4.434A1.434,1.434,0,1,1,16.434,3,1.434,1.434,0,0,1,17.868,4.434Z" transform="translate(-3.915 0)" fill="#fff"/>
    <path id="Path_10" data-name="Path 10" d="M17.537,14.81V13.377a4.025,4.025,0,0,1-2.918-1.312l-.925-1.025a1.387,1.387,0,0,0-.437-.323c-.007,0-.007-.007-.014-.007h-.007a1.431,1.431,0,0,0-.853-.186,1.461,1.461,0,0,0-1.3,1.484v4.237a1.438,1.438,0,0,0,1.434,1.434H16.1v3.585h1.434V17.32A1.438,1.438,0,0,0,16.1,15.886H13.952V13.412A6.116,6.116,0,0,0,17.537,14.81ZM13.114,18.4a2.151,2.151,0,1,1-2.746-2.746V14.165A3.585,3.585,0,1,0,14.6,18.4Z" transform="translate(0 -3.924)" fill="#fff"/>
  </g>
</svg>
