<svg xmlns="http://www.w3.org/2000/svg" width="9.006" height="12.866" viewBox="0 0 9.006 12.866">
  <path id="Icon_material-tram" data-name="Icon material-tram" d="M16.506,12.611V7.181c0-1.795-1.679-2.187-3.866-2.245l.489-.971h2.091V3H8.787v.965h3.056l-.489.978C9.34,5,7.5,5.4,7.5,7.181v5.429a2.063,2.063,0,0,0,1.666,1.911L8.143,15.544v.322H9.578l1.287-1.287H13.29l1.287,1.287h1.287v-.322l-.965-.965h-.051C15.933,14.579,16.506,13.7,16.506,12.611Zm-4.5,1a.965.965,0,1,1,.965-.965A.964.964,0,0,1,12,13.614Zm3.216-2.895H8.787V7.5h6.433Z" transform="translate(-7.5 -3)" fill="#fff"/>
</svg>
