<svg xmlns="http://www.w3.org/2000/svg" xmlns:xlink="http://www.w3.org/1999/xlink" width="42.331" height="42.331" viewBox="0 0 42.331 42.331">
  <defs>
    <linearGradient id="linear-gradient" x1="0.5" x2="0.5" y2="1" gradientUnits="objectBoundingBox">
      <stop offset="0" stop-color="#0a84ff"/>
      <stop offset="1" stop-color="#32d74b"/>
    </linearGradient>
  </defs>
  <path id="Icon_metro-spinner4" data-name="Icon metro-spinner4" d="M17.995,1.928A15.424,15.424,0,0,0,2.575,16.99C2.754,9.7,8.294,3.856,15.1,3.856c6.921,0,12.532,6.042,12.532,13.5a2.892,2.892,0,0,0,5.784,0A15.424,15.424,0,0,0,17.995,1.928Zm0,30.849a15.424,15.424,0,0,0,15.42-15.062C33.236,25,27.7,30.849,20.887,30.849c-6.921,0-12.532-6.042-12.532-13.5a2.892,2.892,0,0,0-5.784,0A15.424,15.424,0,0,0,17.995,32.777Z" transform="translate(45.527 26.771) rotate(149)" fill="url(#linear-gradient)"/>
</svg>
