<svg xmlns="http://www.w3.org/2000/svg" width="10.838" height="10.838" viewBox="0 0 10.838 10.838">
  <path id="Icon_awesome-bus" data-name="Icon awesome-bus" d="M10.33,2.709H10.16V1.693C10.16.745,8.061,0,5.419,0S.677.745.677,1.693V2.709H.508A.508.508,0,0,0,0,3.217V4.911a.508.508,0,0,0,.508.508H.677V8.806a.677.677,0,0,0,.677.677v.677a.677.677,0,0,0,.677.677h.677a.677.677,0,0,0,.677-.677V9.483H7.451v.677a.677.677,0,0,0,.677.677h.677a.677.677,0,0,0,.677-.677V9.483h.135a.534.534,0,0,0,.542-.542V5.419h.169a.508.508,0,0,0,.508-.508V3.217A.508.508,0,0,0,10.33,2.709ZM2.371,8.467a.677.677,0,1,1,.677-.677A.677.677,0,0,1,2.371,8.467ZM2.709,6.1a.677.677,0,0,1-.677-.677V2.709a.677.677,0,0,1,.677-.677H8.128a.677.677,0,0,1,.677.677V5.419a.677.677,0,0,1-.677.677ZM8.467,8.467a.677.677,0,1,1,.677-.677A.677.677,0,0,1,8.467,8.467Z" fill="#fff"/>
</svg>
