<svg width="16" height="20" viewBox="0 0 16 20" fill="none" xmlns="http://www.w3.org/2000/svg">
<path d="M13.6875 1.80859H2.3125C1.58763 1.80859 1 2.41591 1 3.16506V15.8254C1 16.5746 1.58763 17.1819 2.3125 17.1819H13.6875C14.4124 17.1819 15 16.5746 15 15.8254V3.16506C15 2.41591 14.4124 1.80859 13.6875 1.80859Z" stroke="#8B56A4" stroke-width="2" stroke-linejoin="round"/>
<path d="M3.625 17.1914V19M12.375 17.1914V19" stroke="#8B56A4" stroke-width="2" stroke-linecap="round" stroke-linejoin="round"/>
<path d="M12.0532 15.3828C12.4602 15.3828 12.7901 14.978 12.7901 14.4785C12.7901 13.9791 12.4602 13.5742 12.0532 13.5742C11.6463 13.5742 11.3164 13.9791 11.3164 14.4785C11.3164 14.978 11.6463 15.3828 12.0532 15.3828Z" fill="#8B56A4"/>
<path d="M3.94387 15.3828C4.35082 15.3828 4.68072 14.978 4.68072 14.4785C4.68072 13.9791 4.35082 13.5742 3.94387 13.5742C3.53693 13.5742 3.20703 13.9791 3.20703 14.4785C3.20703 14.978 3.53693 15.3828 3.94387 15.3828Z" fill="#8B56A4"/>
<path d="M1 9.95125H15M1 9.04694V10.8556M15 9.04694V10.8556" stroke="#8B56A4" stroke-width="2" stroke-linecap="round" stroke-linejoin="round"/>
</svg>
