<svg width="24" height="16" viewBox="0 0 24 16" fill="none" xmlns="http://www.w3.org/2000/svg">
<path d="M17.5 4C17.5 4 19 5.5 19 8C19 10.5 17.5 12 17.5 12M20.5 1C20.5 1 23 3.5 23 8C23 12.5 20.5 15 20.5 15M6.5 4C6.5 4 5 5.5 5 8C5 10.5 6.5 12 6.5 12M3.5 1C3.5 1 1 3.5 1 8C1 12.5 3.5 15 3.5 15" stroke="#43454D" stroke-width="1.5" stroke-linecap="round" stroke-linejoin="round"/>
<path d="M12 9C12.2652 9 12.5196 8.89464 12.7071 8.70711C12.8946 8.51957 13 8.26522 13 8C13 7.73478 12.8946 7.48043 12.7071 7.29289C12.5196 7.10536 12.2652 7 12 7C11.7348 7 11.4804 7.10536 11.2929 7.29289C11.1054 7.48043 11 7.73478 11 8C11 8.26522 11.1054 8.51957 11.2929 8.70711C11.4804 8.89464 11.7348 9 12 9Z" fill="#43454D" stroke="#4F5158" stroke-width="1.5" stroke-linecap="round" stroke-linejoin="round"/>
</svg>
