<svg width="35" height="30" viewBox="0 0 35 30" fill="none" xmlns="http://www.w3.org/2000/svg">
<path d="M29 9V8.2C29 7.0799 29 6.51984 28.782 6.09202C28.5903 5.71569 28.2843 5.40973 27.908 5.21799C27.4802 5 26.9201 5 25.8 5H24.2C23.0799 5 22.5198 5 22.092 5.21799C21.7157 5.40973 21.4097 5.71569 21.218 6.09202C21 6.51984 21 7.0799 21 8.2V9M23 14.5V19.5M27 14.5V19.5M16 9H34M32 9V20.2C32 21.8802 32 22.7202 31.673 23.362C31.3854 23.9265 30.9265 24.3854 30.362 24.673C29.7202 25 28.8802 25 27.2 25H22.8C21.1198 25 20.2798 25 19.638 24.673C19.0735 24.3854 18.6146 23.9265 18.327 23.362C18 22.7202 18 21.8802 18 20.2V9" stroke="#ADADAD" stroke-width="1.5" stroke-linecap="round" stroke-linejoin="round"/>
<path d="M1 0L1 30" stroke="#DFDFDF"/>
</svg>
