<svg width="26" height="26" viewBox="0 0 26 26" fill="none" xmlns="http://www.w3.org/2000/svg">
<path d="M19.2188 6H3.78125C2.79749 6 2 6.67157 2 7.5V21.5C2 22.3284 2.79749 23 3.78125 23H19.2188C20.2025 23 21 22.3284 21 21.5V7.5C21 6.67157 20.2025 6 19.2188 6Z" fill="#8B56A4" stroke="#8B56A4" stroke-width="1.5" stroke-linejoin="round"/>
<path d="M5.5625 23V25V23ZM17.4375 23V25V23Z" fill="#8B56A4"/>
<path d="M5.5625 23V25M17.4375 23V25" stroke="#8B56A4" stroke-width="1.5" stroke-linecap="round" stroke-linejoin="round"/>
<path d="M17.25 20C17.25 20.1381 17.1381 20.25 17 20.25C16.8619 20.25 16.75 20.1381 16.75 20C16.75 19.8619 16.8619 19.75 17 19.75C17.1381 19.75 17.25 19.8619 17.25 20Z" stroke="#8B56A4" stroke-width="1.5"/>
<path d="M6.25 20C6.25 20.1381 6.13807 20.25 6 20.25C5.86193 20.25 5.75 20.1381 5.75 20C5.75 19.8619 5.86193 19.75 6 19.75C6.13807 19.75 6.25 19.8619 6.25 20Z" stroke="#8B56A4" stroke-width="1.5"/>
<path d="M2 15H21H2ZM2 14V16V14ZM21 14V16V14Z" fill="#8B56A4"/>
<path d="M2 15H21M2 14V16M21 14V16" stroke="#8B56A4" stroke-width="1.5" stroke-linecap="round" stroke-linejoin="round"/>
<path d="M17.3636 21.6591C17.9661 21.6591 18.4545 21.1707 18.4545 20.5682C18.4545 19.9657 17.9661 19.4773 17.3636 19.4773C16.7611 19.4773 16.2727 19.9657 16.2727 20.5682C16.2727 21.1707 16.7611 21.6591 17.3636 21.6591Z" fill="white"/>
<path d="M5.36361 21.6591C5.96611 21.6591 6.45452 21.1707 6.45452 20.5682C6.45452 19.9657 5.96611 19.4773 5.36361 19.4773C4.76112 19.4773 4.27271 19.9657 4.27271 20.5682C4.27271 21.1707 4.76112 21.6591 5.36361 21.6591Z" fill="white"/>
<path d="M1 15H22" stroke="white" stroke-width="1.5" stroke-linecap="round" stroke-linejoin="round"/>
<path d="M18 3.625C18 3.625 18 3.25 17.4089 2.5C16.7244 1.63 15.7133 1 14.5 1C12.5633 1 11 2.5075 11 4.375C11 5.0725 11.2178 5.7175 11.5911 6.25C12.2211 7.1575 18 13 18 13M18 3.625C18 3.625 18 3.25 18.5911 2.5C19.2756 1.63 20.2867 1 21.5 1C23.4367 1 25 2.5075 25 4.375C25 5.0725 24.7822 5.7175 24.4089 6.25C23.7789 7.1575 18 13 18 13" fill="#8B56A4"/>
<path d="M18 3.625C18 3.625 18 3.25 17.4089 2.5C16.7244 1.63 15.7133 1 14.5 1C12.5633 1 11 2.5075 11 4.375C11 5.0725 11.2178 5.7175 11.5911 6.25C12.2211 7.1575 18 13 18 13C18 13 23.7789 7.1575 24.4089 6.25C24.7822 5.7175 25 5.0725 25 4.375C25 2.5075 23.4367 1 21.5 1C20.2867 1 19.2756 1.63 18.5911 2.5C18 3.25 18 3.625 18 3.625Z" stroke="white" stroke-width="1.5" stroke-linecap="round" stroke-linejoin="round"/>
</svg>
