<svg width="38" height="30" viewBox="0 0 38 30" fill="none" xmlns="http://www.w3.org/2000/svg">
<path d="M29 23L31 21.3332V18" stroke="#40464C" stroke-width="1.5" stroke-miterlimit="10" stroke-linecap="round"/>
<path d="M31 27C29.4087 27 27.8826 26.3679 26.7574 25.2426C25.6321 24.1174 25 22.5913 25 21C25 19.4087 25.6321 17.8826 26.7574 16.7574C27.8826 15.6321 29.4087 15 31 15C32.5913 15 34.1174 15.6321 35.2426 16.7574C36.3679 17.8826 37 19.4087 37 21C37 22.5913 36.3679 24.1174 35.2426 25.2426C34.1174 26.3679 32.5913 27 31 27Z" stroke="#40464C" stroke-width="1.5" stroke-linecap="round" stroke-linejoin="round"/>
<path d="M13.8571 9.85714V21.4286C13.8571 22.2242 14.1732 22.9873 14.7358 23.5499C15.2984 24.1125 16.0615 24.4286 16.8571 24.4286H23C23.1731 24.728 23.2897 25.0137 23.5 25.2857H16.8571C15.8342 25.2857 14.8531 24.8793 14.1297 24.156C13.4064 23.4326 13 22.4515 13 21.4286V6.85714C13 5.83417 13.4064 4.85309 14.1297 4.12973C14.8531 3.40638 15.8342 3 16.8571 3H31.4286C32.4515 3 33.4326 3.40638 34.156 4.12973C34.8793 4.85309 35.2857 5.83417 35.2857 6.85714V13.5C34.5 13 34.7268 13.1724 34.4286 13V9.85714H13.8571ZM16.8571 3.85714C16.0615 3.85714 15.2984 4.17321 14.7358 4.73582C14.1732 5.29843 13.8571 6.06149 13.8571 6.85714V9H34.4286V6.85714C34.4286 6.06149 34.1125 5.29843 33.5499 4.73582C32.9873 4.17321 32.2242 3.85714 31.4286 3.85714H16.8571Z" fill="#40464C" stroke="#40464C" stroke-width="0.5"/>
<path d="M1 0L1 30" stroke="#DFDFDF"/>
</svg>
