<svg width="26" height="26" viewBox="0 0 26 26" fill="none" xmlns="http://www.w3.org/2000/svg">
<path fill-rule="evenodd" clip-rule="evenodd" d="M22.8192 3.09198C22.8192 2.5397 22.3715 2.09198 21.8192 2.09198H3.09192C2.53963 2.09198 2.09192 2.53969 2.09192 3.09198V21.8193C2.09192 22.3715 2.53963 22.8193 3.09192 22.8193H14.6829C14.9974 22.8193 15.2893 22.9712 15.5002 23.2045C16.4983 24.3078 17.9415 25.0011 19.5465 25.0011C22.5589 25.0011 25.001 22.559 25.001 19.5465C25.001 17.9415 24.3078 16.4984 23.2044 15.5003C22.9712 15.2893 22.8192 14.9974 22.8192 14.6829V3.09198Z" fill="#8B56A4"/>
<path d="M17 21L19 19.3332V16" stroke="white" stroke-width="1.3" stroke-miterlimit="10" stroke-linecap="round"/>
<path d="M19 25C17.4087 25 15.8826 24.3679 14.7574 23.2426C13.6321 22.1174 13 20.5913 13 19C13 17.4087 13.6321 15.8826 14.7574 14.7574C15.8826 13.6321 17.4087 13 19 13C20.5913 13 22.1174 13.6321 23.2426 14.7574C24.3679 15.8826 25 17.4087 25 19C25 20.5913 24.3679 22.1174 23.2426 23.2426C22.1174 24.3679 20.5913 25 19 25Z" stroke="white" stroke-width="1.3" stroke-linecap="round" stroke-linejoin="round"/>
<path fill-rule="evenodd" clip-rule="evenodd" d="M1.85714 7.85714V19.4286C1.85714 20.2242 2.17321 20.9873 2.73582 21.5499C3.29843 22.1125 4.06149 22.4286 4.85714 22.4286H13C13.1731 22.728 13.8806 23.0137 14.0909 23.2857H4.85714C3.83417 23.2857 2.85309 22.8793 2.12973 22.156C1.40638 21.4326 1 20.4515 1 19.4286V4.85714C1 3.83417 1.40638 2.85309 2.12973 2.12973C2.85309 1.40638 3.83417 1 4.85714 1H19.4286C20.4515 1 21.4326 1.40638 22.156 2.12973C22.8793 2.85309 23.2857 3.83417 23.2857 4.85714V14.0909C22.5 13.5909 22.7268 13.5582 22.4286 13.3859V7.85714H1.85714ZM4.85714 1.85714C4.06149 1.85714 3.29843 2.17321 2.73582 2.73582C2.17321 3.29843 1.85714 4.06149 1.85714 4.85714V7H22.4286V4.85714C22.4286 4.06149 22.1125 3.29843 21.5499 2.73582C20.9873 2.17321 20.2242 1.85714 19.4286 1.85714H4.85714Z" fill="white" stroke="white" stroke-width="0.5"/>
</svg>
