<svg width="19" height="20" viewBox="0 0 19 20" fill="none" xmlns="http://www.w3.org/2000/svg">
<path d="M16.0331 1H2.55515C1.69627 1 1 1.63587 1 2.42026V15.676C1 16.4604 1.69627 17.0963 2.55515 17.0963H16.0331C16.892 17.0963 17.5883 16.4604 17.5883 15.676V2.42026C17.5883 1.63587 16.892 1 16.0331 1Z" stroke="#414651" stroke-width="1.5" stroke-linejoin="round"/>
<path d="M4.11032 17.1062V18.9999M14.478 17.1062V18.9999" stroke="#414651" stroke-width="1.5" stroke-linecap="round" stroke-linejoin="round"/>
<path d="M14.0968 15.2123C14.5789 15.2123 14.9698 14.7884 14.9698 14.2654C14.9698 13.7425 14.5789 13.3186 14.0968 13.3186C13.6146 13.3186 13.2237 13.7425 13.2237 14.2654C13.2237 14.7884 13.6146 15.2123 14.0968 15.2123Z" fill="#414651"/>
<path d="M4.48815 15.2123C4.97033 15.2123 5.36122 14.7884 5.36122 14.2654C5.36122 13.7425 4.97033 13.3186 4.48815 13.3186C4.00597 13.3186 3.61508 13.7425 3.61508 14.2654C3.61508 14.7884 4.00597 15.2123 4.48815 15.2123Z" fill="#414651"/>
<path d="M1 9.5257H17.5883M1 8.57886V10.4725M17.5883 8.57886V10.4725" stroke="#414651" stroke-width="1.5" stroke-linecap="round" stroke-linejoin="round"/>
</svg>
