<svg width="24" height="26" viewBox="0 0 24 26" fill="none" xmlns="http://www.w3.org/2000/svg">
<path d="M19.2857 12.4286V5.28457C19.2858 5.19436 19.2681 5.10502 19.2335 5.02167C19.199 4.93832 19.1484 4.86261 19.0846 4.79886L15.4869 1.20114C15.3584 1.07251 15.1841 1.00016 15.0023 1H1.68571C1.50385 1 1.32944 1.07224 1.20084 1.20084C1.07224 1.32944 1 1.50385 1 1.68571V23.1714C1 23.3533 1.07224 23.5277 1.20084 23.6563C1.32944 23.7849 1.50385 23.8571 1.68571 23.8571H11.2857M5.57143 10.1429H14.7143M5.57143 5.57143H10.1429M5.57143 14.7143H9" stroke="#B8B8B8" stroke-width="1.5" stroke-linecap="round" stroke-linejoin="round"/>
<path d="M14.7109 1V4.88571C14.7109 5.06758 14.7832 5.24199 14.9118 5.37059C15.0404 5.49918 15.2148 5.57143 15.3967 5.57143H19.2824M19.2732 16L22.1944 16.7417C22.4984 16.8194 22.7121 17.096 22.7029 17.4091C22.5064 23.9897 18.7109 25 18.7109 25C18.7109 25 14.9155 23.9897 14.7189 17.4091C14.7158 17.2568 14.7644 17.1079 14.8568 16.9867C14.9491 16.8655 15.0798 16.7791 15.2275 16.7417L18.1487 16C18.5178 15.9063 18.9041 15.9063 19.2732 16Z" stroke="#B8B8B8" stroke-width="1.5" stroke-linecap="round" stroke-linejoin="round"/>
</svg>
