<svg width="41" height="41" viewBox="0 0 41 41" fill="none" xmlns="http://www.w3.org/2000/svg">
<g filter="url(#filter0_dd_131_71)">
<path d="M13.4204 24.6923C12.8256 24.9234 12.5282 25.039 12.3457 24.9882C12.1875 24.9442 12.0635 24.8348 12.0135 24.6952C11.9558 24.5341 12.0863 24.2713 12.3473 23.7458L19.7547 8.8315C19.9903 8.3571 20.1081 8.11989 20.2728 8.04729C20.4159 7.98424 20.5841 7.98424 20.7272 8.04729C20.8919 8.11989 21.0097 8.3571 21.2453 8.8315L28.6527 23.7458C28.9137 24.2713 29.0442 24.5341 28.9865 24.6952C28.9365 24.8348 28.8125 24.9442 28.6543 24.9882C28.4718 25.039 28.1744 24.9234 27.5796 24.6923L20.8278 22.0688C20.707 22.0219 20.584 21.9892 20.584 21.9892C20.5284 21.9809 20.4716 21.9809 20.416 21.9892C20.3533 21.9984 20.1722 22.0688 20.1722 22.0688L13.4204 24.6923Z" fill="#0CBE7E"/>
<path d="M13.4204 24.6923C12.8256 24.9234 12.5282 25.039 12.3457 24.9882C12.1875 24.9442 12.0635 24.8348 12.0135 24.6952C11.9558 24.5341 12.0863 24.2713 12.3473 23.7458L19.7547 8.8315C19.9903 8.3571 20.1081 8.11989 20.2728 8.04729C20.4159 7.98424 20.5841 7.98424 20.7272 8.04729C20.8919 8.11989 21.0097 8.3571 21.2453 8.8315L28.6527 23.7458C28.9137 24.2713 29.0442 24.5341 28.9865 24.6952C28.9365 24.8348 28.8125 24.9442 28.6543 24.9882C28.4718 25.039 28.1744 24.9234 27.5796 24.6923L20.8278 22.0688C20.707 22.0219 20.584 21.9892 20.584 21.9892C20.5284 21.9809 20.4716 21.9809 20.416 21.9892C20.3533 21.9984 20.1722 22.0688 20.1722 22.0688L13.4204 24.6923Z" stroke="white" stroke-width="1.5" stroke-linecap="round" stroke-linejoin="round"/>
</g>
<defs>
<filter id="filter0_dd_131_71" x="0.250244" y="0.25" width="40.4995" height="40.4998" filterUnits="userSpaceOnUse" color-interpolation-filters="sRGB">
<feFlood flood-opacity="0" result="BackgroundImageFix"/>
<feColorMatrix in="SourceAlpha" type="matrix" values="0 0 0 0 0 0 0 0 0 0 0 0 0 0 0 0 0 0 127 0" result="hardAlpha"/>
<feOffset dy="1"/>
<feGaussianBlur stdDeviation="1.5"/>
<feColorMatrix type="matrix" values="0 0 0 0 0 0 0 0 0 0 0 0 0 0 0 0 0 0 0.3 0"/>
<feBlend mode="normal" in2="BackgroundImageFix" result="effect1_dropShadow_131_71"/>
<feColorMatrix in="SourceAlpha" type="matrix" values="0 0 0 0 0 0 0 0 0 0 0 0 0 0 0 0 0 0 127 0" result="hardAlpha"/>
<feMorphology radius="3" operator="dilate" in="SourceAlpha" result="effect2_dropShadow_131_71"/>
<feOffset dy="4"/>
<feGaussianBlur stdDeviation="4"/>
<feColorMatrix type="matrix" values="0 0 0 0 0 0 0 0 0 0 0 0 0 0 0 0 0 0 0.15 0"/>
<feBlend mode="normal" in2="effect1_dropShadow_131_71" result="effect2_dropShadow_131_71"/>
<feBlend mode="normal" in="SourceGraphic" in2="effect2_dropShadow_131_71" result="shape"/>
</filter>
</defs>
</svg>
