<svg width="16" height="23" viewBox="0 0 16 23" fill="none" xmlns="http://www.w3.org/2000/svg">
<path d="M13.6875 4.80859H2.3125C1.58763 4.80859 1 5.41591 1 6.16506V18.8254C1 19.5746 1.58763 20.1819 2.3125 20.1819H13.6875C14.4124 20.1819 15 19.5746 15 18.8254V6.16506C15 5.41591 14.4124 4.80859 13.6875 4.80859Z" stroke="#2D8CFF" stroke-width="2" stroke-linejoin="round"/>
<path d="M7.63458 4.5L9.92672 1M3.26953 1H12.8726" stroke="#2D8CFF" stroke-width="2"/>
<path d="M3.625 20.1914V22M12.375 20.1914V22" stroke="#2D8CFF" stroke-width="2" stroke-linecap="round" stroke-linejoin="round"/>
<path d="M12.0532 18.3828C12.4602 18.3828 12.7901 17.978 12.7901 17.4785C12.7901 16.9791 12.4602 16.5742 12.0532 16.5742C11.6463 16.5742 11.3164 16.9791 11.3164 17.4785C11.3164 17.978 11.6463 18.3828 12.0532 18.3828Z" fill="#2D8CFF"/>
<path d="M3.94387 18.3828C4.35082 18.3828 4.68072 17.978 4.68072 17.4785C4.68072 16.9791 4.35082 16.5742 3.94387 16.5742C3.53693 16.5742 3.20703 16.9791 3.20703 17.4785C3.20703 17.978 3.53693 18.3828 3.94387 18.3828Z" fill="#2D8CFF"/>
<path d="M1 12.9512H15M1 12.0469V13.8556M15 12.0469V13.8556M5.375 8.42969H10.625" stroke="#2D8CFF" stroke-width="2" stroke-linecap="round" stroke-linejoin="round"/>
</svg>
