<svg width="19" height="21" viewBox="0 0 19 21" fill="none" xmlns="http://www.w3.org/2000/svg">
<path d="M9.99527 0.380284C9.87378 0.256211 9.72816 0.158471 9.56746 0.0931199C9.40675 0.0277685 9.23436 -0.00380199 9.06098 0.00036475C8.88761 0.00453149 8.71693 0.0443468 8.55953 0.117343C8.40213 0.19034 8.26135 0.294962 8.14593 0.424728L0.321734 9.21077C0.114509 9.44349 -1.68185e-05 9.74454 1.85253e-09 10.0565V19.7302C1.85253e-09 20.0669 0.133452 20.3899 0.370998 20.6281C0.608544 20.8662 0.930726 21 1.26667 21H5.06667C5.40261 21 5.72479 20.8662 5.96234 20.6281C6.19988 20.3899 6.33333 20.0669 6.33333 19.7302V15.2857C6.33333 14.9489 6.46679 14.6259 6.70433 14.3878C6.94188 14.1496 7.26406 14.0159 7.6 14.0159H11.4C11.7359 14.0159 12.0581 14.1496 12.2957 14.3878C12.5332 14.6259 12.6667 14.9489 12.6667 15.2857V19.7302C12.6667 20.0669 12.8001 20.3899 13.0377 20.6281C13.2752 20.8662 13.5974 21 13.9333 21H17.7333C18.0693 21 18.3915 20.8662 18.629 20.6281C18.8665 20.3899 19 20.0669 19 19.7302V10.0908C18.9996 9.75819 18.8691 9.43902 18.6365 9.20189L9.99527 0.380284Z" fill="#8B56A4"/>
</svg>
