<svg width="22" height="22" viewBox="0 0 22 22" fill="none" xmlns="http://www.w3.org/2000/svg">
<path d="M14.3333 17.6667L16 16.2776V13.5" stroke="#40464C" stroke-width="1.3" stroke-miterlimit="10" stroke-linecap="round"/>
<path d="M16 21C14.6739 21 13.4021 20.4732 12.4645 19.5355C11.5268 18.5979 11 17.3261 11 16C11 14.6739 11.5268 13.4021 12.4645 12.4645C13.4021 11.5268 14.6739 11 16 11C17.3261 11 18.5979 11.5268 19.5355 12.4645C20.4732 13.4021 21 14.6739 21 16C21 17.3261 20.4732 18.5979 19.5355 19.5355C18.5979 20.4732 17.3261 21 16 21Z" stroke="#40464C" stroke-width="1.3" stroke-linecap="round" stroke-linejoin="round"/>
<path d="M1.71429 6.71429V16.3571C1.71429 17.0202 1.97768 17.6561 2.44652 18.1249C2.91536 18.5938 3.55124 18.8571 4.21429 18.8571H9.33333C9.47762 19.1067 9.57476 19.3448 9.75 19.5714H4.21429C3.3618 19.5714 2.54424 19.2328 1.94144 18.63C1.33865 18.0272 1 17.2096 1 16.3571V4.21429C1 3.3618 1.33865 2.54424 1.94144 1.94144C2.54424 1.33865 3.3618 1 4.21429 1H16.3571C17.2096 1 18.0272 1.33865 18.63 1.94144C19.2328 2.54424 19.5714 3.3618 19.5714 4.21429V9.75C18.9167 9.33333 19.1057 9.47697 18.8571 9.33333V6.71429H1.71429ZM4.21429 1.71429C3.55124 1.71429 2.91536 1.97768 2.44652 2.44652C1.97768 2.91536 1.71429 3.55124 1.71429 4.21429V6H18.8571V4.21429C18.8571 3.55124 18.5938 2.91536 18.1249 2.44652C17.6561 1.97768 17.0202 1.71429 16.3571 1.71429H4.21429Z" fill="#40464C" stroke="#40464C" stroke-width="0.5"/>
</svg>
