<svg width="15" height="24" viewBox="0 0 15 24" fill="none" xmlns="http://www.w3.org/2000/svg">
<path d="M0.28786 5.47869C0.103543 5.29866 -4.80263e-07 5.05452 -4.92126e-07 4.79995C-5.03989e-07 4.54539 0.103543 4.30124 0.28786 4.12121L4.22057 0.281087C4.40494 0.101108 4.65497 3.62384e-06 4.91568 3.61315e-06C5.17638 3.60246e-06 5.42641 0.101108 5.61078 0.281087L9.54349 4.12121C9.72259 4.30227 9.82168 4.54478 9.81944 4.7965C9.8172 5.04821 9.7138 5.289 9.53152 5.467C9.34923 5.645 9.10263 5.74596 8.84485 5.74815C8.58706 5.75034 8.33871 5.65357 8.15328 5.47869L5.89885 3.27734L5.89885 14.4003C5.89885 14.6549 5.79527 14.8991 5.61089 15.0791C5.42651 15.2591 5.17643 15.3603 4.91568 15.3603C4.65492 15.3603 4.40485 15.2591 4.22047 15.0791C4.03608 14.8991 3.9325 14.6549 3.9325 14.4003L3.9325 3.27734L1.67807 5.47869C1.4937 5.65867 1.24367 5.75978 0.982967 5.75978C0.722263 5.75978 0.472233 5.65867 0.28786 5.47869Z" fill="white"/>
<path d="M14.5316 18.4395C14.7159 18.6195 14.8195 18.8637 14.8195 19.1182C14.8195 19.3728 14.7159 19.6169 14.5316 19.797L10.5989 23.6371C10.4145 23.8171 10.1645 23.9182 9.90378 23.9182C9.64308 23.9182 9.39305 23.8171 9.20868 23.6371L5.27597 19.797C5.09687 19.6159 4.99777 19.3734 5.00001 19.1217C5.00225 18.87 5.10565 18.6292 5.28794 18.4512C5.47023 18.2732 5.71682 18.1722 5.97461 18.17C6.2324 18.1678 6.48075 18.2646 6.66618 18.4395L8.9206 20.6408L8.9206 9.51792C8.9206 9.26331 9.02419 9.01912 9.20857 8.83908C9.39295 8.65904 9.64303 8.55789 9.90378 8.55789C10.1645 8.55789 10.4146 8.65904 10.599 8.83908C10.7834 9.01912 10.887 9.26331 10.887 9.51792L10.887 20.6408L13.1414 18.4395C13.3258 18.2595 13.5758 18.1584 13.8365 18.1584C14.0972 18.1584 14.3472 18.2595 14.5316 18.4395Z" fill="white"/>
</svg>
