<svg width="21" height="20" viewBox="0 0 21 20" fill="none" xmlns="http://www.w3.org/2000/svg">
<path d="M19.3839 19L1.00256 1" stroke="white" stroke-width="1.5" stroke-linecap="round" stroke-linejoin="round"/>
<path d="M5.37915 11.3126V10.4019M5.37915 15.4108V14.5001" stroke="white" stroke-width="1.5" stroke-linecap="round" stroke-linejoin="round"/>
<path d="M2.61719 5.38013C2.58099 5.52329 2.55162 5.70311 2.5332 5.94263C2.50058 6.36749 2.5 6.91415 2.5 7.69849V13.5881C2.5 14.3727 2.50053 14.9191 2.5332 15.344C2.56531 15.7613 2.62555 15.9981 2.70996 16.1741L2.7832 16.3137C2.96594 16.6301 3.22506 16.882 3.52637 17.0452L3.65137 17.1018C3.79079 17.1549 3.97849 17.196 4.26562 17.2209C4.65886 17.2551 5.1668 17.2551 5.90723 17.2551H14.7441L16.2598 18.7395C15.8742 18.7544 15.4286 18.7551 14.916 18.7551H5.90723C5.19302 18.7551 4.60885 18.7562 4.13574 18.7151C3.71288 18.6783 3.32617 18.6053 2.96484 18.4407L2.81152 18.3645C2.25745 18.0645 1.80091 17.611 1.48438 17.0627L1.35742 16.8225C1.15871 16.4081 1.07681 15.9623 1.03809 15.4592C0.999964 14.9635 1 14.3495 1 13.5881V7.69849C1 6.93725 0.999994 6.32314 1.03809 5.82739C1.07678 5.32423 1.15878 4.87852 1.35742 4.46411L1.4668 4.25415L2.61719 5.38013ZM14.916 2.53052C15.6303 2.53052 16.2143 2.5295 16.6875 2.57056C17.1709 2.61252 17.6066 2.70283 18.0117 2.92212L18.2432 3.05982C18.7687 3.4023 19.1913 3.88962 19.4668 4.46411L19.5361 4.62036C19.6855 4.99024 19.7523 5.38696 19.7861 5.82739C19.8242 6.32314 19.8232 6.93725 19.8232 7.69849V13.5881C19.8232 14.3495 19.8243 14.9635 19.7861 15.4592C19.7593 15.8076 19.7108 16.128 19.6182 16.4299L18.3008 15.1409C18.3208 14.747 18.3232 14.2534 18.3232 13.5881V7.69849C18.3232 6.91411 18.3227 6.36749 18.29 5.94263C18.266 5.62937 18.2268 5.41742 18.1729 5.25708L18.1143 5.11255C17.9538 4.77792 17.7124 4.50472 17.4238 4.31665L17.2979 4.24146C17.1472 4.15991 16.9407 4.09893 16.5576 4.06568C16.1643 4.03156 15.6565 4.03052 14.916 4.03052H6.95605L5.42578 2.53345C5.57926 2.53301 5.73965 2.53052 5.90723 2.53052H14.916Z" fill="white"/>
</svg>
